{
  "accessors": [
    {
      "bufferView": 1,
      "componentType": 5126,
      "count": 65532,
      "max": [
        122.03524780273438,
        77.70669555664063,
        229.9688720703125
      ],
      "min": [
        0.0,
        0.0,
        1.0988616943359375
      ],
      "type": "VEC3"
    },
    {
      "bufferView": 1,
      "byteOffset": 786384,
      "componentType": 5126,
      "count": 65532,
      "max": [
        0.9999778866767883,
        0.9994378089904785,
        0.998052716255188
      ],
      "min": [
        -0.9998733401298523,
        -0.9999895691871643,
        -0.999947726726532
      ],
      "type": "VEC3"
    },
    {
      "bufferView": 0,
      "componentType": 5125,
      "count": 323877,
      "type": "SCALAR"
    },
    {
      "bufferView": 1,
      "byteOffset": 1572768,
      "componentType": 5126,
      "count": 65532,
      "max": [
        118.99060821533203,
        77.74768829345703,
        211.52427673339844
      ],
      "min": [
        2.8711204528808594,
        0.03191566467285156,
        38.39403533935547
      ],
      "type": "VEC3"
    },
    {
      "bufferView": 1,
      "byteOffset": 2359152,
      "componentType": 5126,
      "count": 65532,
      "max": [
        0.9999988079071045,
        0.9999231100082397,
        0.9995226860046387
      ],
      "min": [
        -0.9999915957450867,
        -0.999997615814209,
        -0.9999967813491821
      ],
      "type": "VEC3"
    },
    {
      "bufferView": 0,
      "byteOffset": 1295508,
      "componentType": 5125,
      "count": 324951,
      "type": "SCALAR"
    },
    {
      "bufferView": 1,
      "byteOffset": 3145536,
      "componentType": 5126,
      "count": 65532,
      "max": [
        118.58625793457031,
        73.99179077148438,
        110.12055969238281
      ],
      "min": [
        7.7100982666015625,
        0.5530123710632324,
        3.005523681640625
      ],
      "type": "VEC3"
    },
    {
      "bufferView": 1,
      "byteOffset": 3931920,
      "componentType": 5126,
      "count": 65532,
      "max": [
        0.9999549984931946,
        0.9970316290855408,
        0.9998914003372192
      ],
      "min": [
        -0.9999954700469971,
        -0.9999945163726807,
        -0.9946077466011047
      ],
      "type": "VEC3"
    },
    {
      "bufferView": 0,
      "byteOffset": 2595312,
      "componentType": 5125,
      "count": 373140,
      "type": "SCALAR"
    },
    {
      "bufferView": 1,
      "byteOffset": 4718304,
      "componentType": 5126,
      "count": 65532,
      "max": [
        122.03524780273438,
        77.7347640991211,
        218.75732421875
      ],
      "min": [
        0.7212257385253906,
        0.0,
        35.908233642578125
      ],
      "type": "VEC3"
    },
    {
      "bufferView": 1,
      "byteOffset": 5504688,
      "componentType": 5126,
      "count": 65532,
      "max": [
        0.9999933838844299,
        0.9999743700027466,
        0.9995856881141663
      ],
      "min": [
        -0.9999949336051941,
        -0.9999867081642151,
        -0.9999878406524658
      ],
      "type": "VEC3"
    },
    {
      "bufferView": 0,
      "byteOffset": 4087872,
      "componentType": 5125,
      "count": 252507,
      "type": "SCALAR"
    },
    {
      "bufferView": 1,
      "byteOffset": 6291072,
      "componentType": 5126,
      "count": 65532,
      "max": [
        122.03524780273438,
        80.73931884765625,
        231.11703491210938
      ],
      "min": [
        0.0,
        0.9222140312194824,
        38.299034118652344
      ],
      "type": "VEC3"
    },
    {
      "bufferView": 1,
      "byteOffset": 7077456,
      "componentType": 5126,
      "count": 65532,
      "max": [
        0.9999673366546631,
        0.9999814033508301,
        0.9999684691429138
      ],
      "min": [
        -0.9999970197677612,
        -0.9455292224884033,
        -0.9995285868644714
      ],
      "type": "VEC3"
    },
    {
      "bufferView": 0,
      "byteOffset": 5097900,
      "componentType": 5125,
      "count": 345003,
      "type": "SCALAR"
    },
    {
      "bufferView": 1,
      "byteOffset": 7863840,
      "componentType": 5126,
      "count": 65532,
      "max": [
        114.83417510986328,
        76.18099212646484,
        231.11703491210938
      ],
      "min": [
        0.00553131103515625,
        0.954251766204834,
        111.66888427734375
      ],
      "type": "VEC3"
    },
    {
      "bufferView": 1,
      "byteOffset": 8650224,
      "componentType": 5126,
      "count": 65532,
      "max": [
        0.9999637603759766,
        0.9999022483825684,
        0.9999960064888
      ],
      "min": [
        -0.9999970197677612,
        -0.9455292224884033,
        -0.9958810210227966
      ],
      "type": "VEC3"
    },
    {
      "bufferView": 0,
      "byteOffset": 6477912,
      "componentType": 5125,
      "count": 351216,
      "type": "SCALAR"
    },
    {
      "bufferView": 1,
      "byteOffset": 9436608,
      "componentType": 5126,
      "count": 65532,
      "max": [
        121.75454711914063,
        78.5829086303711,
        221.5321044921875
      ],
      "min": [
        0.775970458984375,
        0.921546459197998,
        0.6689071655273438
      ],
      "type": "VEC3"
    },
    {
      "bufferView": 1,
      "byteOffset": 10222992,
      "componentType": 5126,
      "count": 65532,
      "max": [
        0.9999781250953674,
        0.9999945163726807,
        0.9995527267456055
      ],
      "min": [
        -0.9999982714653015,
        -0.9999675750732422,
        -0.9993957877159119
      ],
      "type": "VEC3"
    },
    {
      "bufferView": 0,
      "byteOffset": 7882776,
      "componentType": 5125,
      "count": 338052,
      "type": "SCALAR"
    },
    {
      "bufferView": 1,
      "byteOffset": 11009376,
      "componentType": 5126,
      "count": 46580,
      "max": [
        115.32353973388672,
        75.14420318603516,
        228.09254455566406
      ],
      "min": [
        2.3176498413085938,
        0.6952157020568848,
        0.0
      ],
      "type": "VEC3"
    },
    {
      "bufferView": 1,
      "byteOffset": 11568336,
      "componentType": 5126,
      "count": 46580,
      "max": [
        0.9998618364334106,
        0.9999354481697083,
        0.9980353713035583
      ],
      "min": [
        -0.999670684337616,
        -0.9999788403511047,
        -0.9999922513961792
      ],
      "type": "VEC3"
    },
    {
      "bufferView": 0,
      "byteOffset": 9234984,
      "componentType": 5125,
      "count": 202398,
      "type": "SCALAR"
    }
  ],
  "asset": {
    "extras": {
      "author": "meisHOSS (https://sketchfab.com/meisHOSS)",
      "license": "CC-BY-4.0 (http://creativecommons.org/licenses/by/4.0/)",
      "source": "https://sketchfab.com/3d-models/jojo-ishikamen-88161708fb64423a8bdb95568fc75416",
      "title": "Jojo Ishikamen"
    },
    "generator": "Sketchfab-12.65.0",
    "version": "2.0"
  },
  "bufferViews": [
    {
      "buffer": 0,
      "byteLength": 10044576,
      "name": "floatBufferViews",
      "target": 34963
    },
    {
      "buffer": 0,
      "byteLength": 12127296,
      "byteOffset": 10044576,
      "byteStride": 12,
      "name": "floatBufferViews",
      "target": 34962
    }
  ],
  "buffers": [
    {
      "byteLength": 22171872,
      "uri": "scene.bin"
    }
  ],
  "materials": [
    {
      "doubleSided": true,
      "name": "Scene_-_Root",
      "pbrMetallicRoughness": {
        "metallicFactor": 0.0,
        "roughnessFactor": 0.6
      }
    }
  ],
  "meshes": [
    {
      "name": "Object_0",
      "primitives": [
        {
          "attributes": {
            "NORMAL": 1,
            "POSITION": 0
          },
          "indices": 2,
          "material": 0,
          "mode": 4
        }
      ]
    },
    {
      "name": "Object_1",
      "primitives": [
        {
          "attributes": {
            "NORMAL": 4,
            "POSITION": 3
          },
          "indices": 5,
          "material": 0,
          "mode": 4
        }
      ]
    },
    {
      "name": "Object_2",
      "primitives": [
        {
          "attributes": {
            "NORMAL": 7,
            "POSITION": 6
          },
          "indices": 8,
          "material": 0,
          "mode": 4
        }
      ]
    },
    {
      "name": "Object_3",
      "primitives": [
        {
          "attributes": {
            "NORMAL": 10,
            "POSITION": 9
          },
          "indices": 11,
          "material": 0,
          "mode": 4
        }
      ]
    },
    {
      "name": "Object_4",
      "primitives": [
        {
          "attributes": {
            "NORMAL": 13,
            "POSITION": 12
          },
          "indices": 14,
          "material": 0,
          "mode": 4
        }
      ]
    },
    {
      "name": "Object_5",
      "primitives": [
        {
          "attributes": {
            "NORMAL": 16,
            "POSITION": 15
          },
          "indices": 17,
          "material": 0,
          "mode": 4
        }
      ]
    },
    {
      "name": "Object_6",
      "primitives": [
        {
          "attributes": {
            "NORMAL": 19,
            "POSITION": 18
          },
          "indices": 20,
          "material": 0,
          "mode": 4
        }
      ]
    },
    {
      "name": "Object_7",
      "primitives": [
        {
          "attributes": {
            "NORMAL": 22,
            "POSITION": 21
          },
          "indices": 23,
          "material": 0,
          "mode": 4
        }
      ]
    }
  ],
  "nodes": [
    {
      "children": [
        1
      ],
      "matrix": [
        1.0,
        0.0,
        0.0,
        0.0,
        0.0,
        -5.053215392444312e-16,
        1.0,
        0.0,
        0.0,
        -1.0,
        -5.053215392444312e-16,
        0.0,
        0.0,
        -2.5907711982726838,
        -96.21624755859375,
        1.0
      ],
      "name": "Sketchfab_model"
    },
    {
      "children": [
        2,
        3,
        4,
        5,
        6,
        7,
        8,
        9
      ],
      "matrix": [
        1.0,
        0.0,
        0.0,
        0.0,
        0.0,
        1.0,
        0.0,
        0.0,
        0.0,
        0.0,
        1.0,
        0.0,
        -60.58051681518555,
        7.738548755645752,
        -116.85355377197266,
        1.0
      ],
      "name": "jojo_ishikamen.stl.cleaner.materialmerger.gles"
    },
    {
      "mesh": 0,
      "name": "Object_2"
    },
    {
      "mesh": 1,
      "name": "Object_3"
    },
    {
      "mesh": 2,
      "name": "Object_4"
    },
    {
      "mesh": 3,
      "name": "Object_5"
    },
    {
      "mesh": 4,
      "name": "Object_6"
    },
    {
      "mesh": 5,
      "name": "Object_7"
    },
    {
      "mesh": 6,
      "name": "Object_8"
    },
    {
      "mesh": 7,
      "name": "Object_9"
    }
  ],
  "scene": 0,
  "scenes": [
    {
      "name": "Sketchfab_Scene",
      "nodes": [
        0
      ]
    }
  ]
}
